# Blender v3.6.5 OBJ File: 'forest_nature_set_all_in.blend'
# www.blender.org
mtllib mushroom2.mtl
o Mushroom_high_yellow_Cylinder.062
v -16.292349 7.044401 14.868977
v -16.304861 7.188829 14.868977
v -15.563558 7.075854 15.170465
v -15.576070 7.220283 15.170465
v -15.261683 7.088882 15.898323
v -15.274195 7.233311 15.898323
v -15.563558 7.075854 16.626181
v -15.576070 7.220283 16.626181
v -16.292349 7.044401 16.927670
v -16.304861 7.188829 16.927670
v -17.021139 7.012948 16.626181
v -17.033651 7.157377 16.626181
v -17.323015 6.999920 15.898323
v -17.335527 7.144348 15.898323
v -17.021139 7.012948 15.170465
v -17.033651 7.157377 15.170465
v -16.289558 6.963294 15.057338
v -15.694131 6.988991 15.303657
v -15.447496 6.999636 15.898323
v -15.694131 6.988991 16.492989
v -16.289558 6.963294 16.739307
v -16.884987 6.937596 16.492989
v -17.131622 6.926952 15.898323
v -16.884987 6.937596 15.303657
v -16.277666 6.826009 15.721482
v -16.152460 6.831412 15.773277
v -16.100597 6.833651 15.898323
v -16.152460 6.831412 16.023369
v -16.277666 6.826009 16.075165
v -16.402872 6.820605 16.023369
v -16.454733 6.818367 15.898323
v -16.402872 6.820605 15.773277
v -16.307545 7.425272 15.070198
v -16.893869 7.399968 16.483896
v -15.478359 7.461059 15.898323
v -15.721223 7.450577 15.312751
v -16.893869 7.399968 15.312751
v -17.136732 7.389486 15.898323
v -16.307547 7.425272 16.726448
v -15.721223 7.450577 16.483896
v -16.241373 6.064234 15.758752
v -16.183599 6.064234 15.898323
v -16.241373 6.064234 16.037895
v -16.380854 6.064234 16.095707
v -16.520332 6.064234 16.037895
v -16.578106 6.064234 15.898323
v -16.380854 6.064234 15.700939
v -16.520332 6.064234 15.758752
v -16.423399 6.434373 15.766067
v -16.478109 6.433034 15.898323
v -16.423399 6.434373 16.030581
v -16.291315 6.437702 16.085361
v -16.159227 6.440820 16.030579
v -16.104517 6.442241 15.898323
v -16.159227 6.440820 15.766067
v -16.093452 8.533555 15.551471
v -16.291315 6.437702 15.711284
v -16.440750 8.518566 15.407800
v -15.949597 8.539763 15.898323
v -16.093452 8.533555 16.245176
v -16.440750 8.518566 16.388847
v -16.788046 8.503578 16.245176
v -16.931902 8.497369 15.898323
v -16.788046 8.503578 15.551471
v -16.477633 8.939469 15.898323
v -16.380854 6.064234 15.898323
v -15.775970 7.888497 15.898323
v -16.814125 7.843693 16.327791
v -16.384106 7.862251 15.290964
v -16.384108 7.862251 16.505682
v -16.814125 7.843693 15.468856
v -15.954089 7.880810 16.327791
v -16.992243 7.836005 15.898323
v -15.954089 7.880810 15.468856
vt 0.450659 0.040896
vt 0.450860 0.074334
vt 0.467926 0.057174
vt 0.467726 0.023736
vt 0.474995 0.050066
vt 0.474795 0.016629
vt 0.467926 0.057174
vt 0.467726 0.023736
vt 0.450860 0.074334
vt 0.450659 0.040896
vt 0.433793 0.091493
vt 0.433593 0.058056
vt 0.426724 0.098601
vt 0.426524 0.065163
vt 0.451306 0.230941
vt 0.461375 0.220816
vt 0.460352 0.374705
vt 0.452220 0.382882
vt 0.433793 0.091493
vt 0.433593 0.058056
vt 0.881396 0.829621
vt 0.873045 0.847242
vt 0.865715 0.712651
vt 0.871207 0.701064
vt 0.839197 0.768602
vt 0.852456 0.740626
vt 0.852232 0.661828
vt 0.848768 0.669135
vt 0.832718 0.932328
vt 0.824366 0.949948
vt 0.833705 0.780190
vt 0.839197 0.768602
vt 0.852881 0.889786
vt 0.852456 0.740626
vt 0.832718 0.932328
vt 0.873045 0.847242
vt 0.865715 0.712651
vt 0.852881 0.889786
vt 0.852232 0.661828
vt 0.851952 0.531051
vt 0.856005 0.520429
vt 0.855696 0.654517
vt 0.847333 0.672163
vt 0.848768 0.669135
vt 0.857131 0.651491
vt 0.855696 0.654517
vt 0.857683 0.516028
vt 0.856005 0.520429
vt 0.437871 0.142284
vt 0.432184 0.148003
vt 0.847899 0.541675
vt 0.846220 0.546074
vt 0.847899 0.541675
vt 0.851952 0.531051
vt 0.846220 0.546074
vt 0.847899 0.541675
vt 0.851952 0.531051
vt 0.856005 0.520429
vt 0.857683 0.516028
vt 0.856005 0.520429
vt 0.847899 0.541675
vt 0.851952 0.531051
vt 0.851952 0.531051
vt 0.465331 0.114674
vt 0.451601 0.128479
vt 0.437871 0.142284
vt 0.451601 0.128479
vt 0.471018 0.108956
vt 0.441236 0.241066
vt 0.437065 0.245259
vt 0.465331 0.114674
vt 0.465547 0.216622
vt 0.461375 0.220816
vt 0.460352 0.374705
vt 0.463721 0.371318
vt 0.441236 0.241066
vt 0.440718 0.394446
vt 0.444087 0.391059
vt 0.444087 0.391059
vt 0.452220 0.382882
vt 0.452793 0.480343
vt 0.451306 0.230941
vn 0.3808 0.0330 -0.9241
vn 0.9203 0.0797 -0.3831
vn 0.9203 0.0797 0.3831
vn 0.3808 0.0330 0.9241
vn -0.3808 -0.0330 0.9241
vn -0.9203 -0.0797 0.3831
vn 0.3679 0.1937 0.9095
vn -0.9203 -0.0797 -0.3831
vn -0.3808 -0.0330 -0.9241
vn 0.4273 -0.8896 0.1613
vn -0.0411 -0.9786 -0.2016
vn -0.3515 -0.9220 0.1623
vn 0.2001 -0.8988 0.3900
vn -0.3515 -0.9220 -0.1623
vn 0.4273 -0.8896 -0.1613
vn -0.1224 -0.9122 0.3910
vn -0.1224 -0.9122 -0.3910
vn 0.2001 -0.8988 -0.3900
vn 0.3824 0.0106 0.9239
vn -0.1578 -0.9840 0.0831
vn 0.1259 -0.9711 0.2030
vn 0.2454 -0.9657 -0.0845
vn -0.1578 -0.9840 -0.0831
vn -0.0411 -0.9786 0.2016
vn 0.2454 -0.9657 0.0845
vn 0.1259 -0.9711 -0.2030
vn 0.9239 -0.0091 -0.3825
vn -0.7417 0.6015 0.2968
vn -0.9227 0.0561 -0.3814
vn -0.3835 0.0377 0.9228
vn 0.9239 -0.0091 0.3825
vn -0.3835 0.0377 -0.9228
vn -0.9227 0.0561 0.3814
vn -0.8968 0.2427 0.3699
vn 0.3828 -0.0659 0.9215
vn 0.9075 -0.1903 -0.3745
vn -0.8968 0.2427 -0.3699
vn -0.3816 0.1175 0.9168
vn 0.9075 -0.1903 0.3745
vn -0.3816 0.1175 -0.9168
vn 0.0000 -1.0000 0.0000
vn 0.2753 0.6249 0.7306
vn -0.7417 0.6015 -0.2968
vn -0.3250 0.6108 -0.7220
vn 0.7090 0.6356 0.3054
vn -0.8867 0.2869 0.3626
vn 0.7090 0.6356 -0.3054
vn 0.8955 0.2387 -0.3757
vn -0.9210 0.0840 -0.3805
vn -0.3838 0.1296 0.9143
vn -0.3250 0.6108 0.7220
vn 0.3828 -0.0659 -0.9215
vn 0.2753 0.6249 -0.7306
vn 0.2261 0.7476 -0.6245
vn -0.3838 0.1296 -0.9143
vn 0.3679 0.1937 -0.9095
vn 0.8955 0.2387 0.3757
vn -0.9210 0.0840 0.3805
vn 0.5835 0.7708 0.2558
vn -0.6722 0.6907 -0.2664
vn -0.2936 0.7145 0.6351
vn 0.5835 0.7708 -0.2558
vn -0.2936 0.7145 -0.6351
vn 0.2261 0.7476 0.6245
vn -0.6722 0.6907 0.2664
vn 0.3824 0.0106 -0.9239
vn 0.7745 0.5392 0.3309
vn 0.3197 0.4713 -0.8220
vn -0.3691 0.3668 -0.8540
vn -0.3691 0.3668 0.8540
vn -0.8867 0.2869 -0.3626
vn 0.7745 0.5392 -0.3309
vn 0.3197 0.4713 0.8220
usemtl AllColors_Material
s off
f 1/1/1 2/2/1 4/3/1 3/4/1
f 3/4/2 4/3/2 6/5/2 5/6/2
f 5/6/3 6/5/3 8/7/3 7/8/3
f 7/8/4 8/7/4 10/9/4 9/10/4
f 9/10/5 10/9/5 12/11/5 11/12/5
f 11/12/6 12/11/6 14/13/6 13/14/6
f 70/15/7 72/16/7 60/17/7 61/18/7
f 13/14/8 14/13/8 16/19/8 15/20/8
f 15/20/9 16/19/9 2/2/9 1/1/9
f 5/21/10 7/22/10 20/23/10 19/24/10
f 24/25/11 17/26/11 25/27/11 32/28/11
f 11/29/12 13/30/12 23/31/12 22/32/12
f 7/22/13 9/33/13 21/34/13 20/23/13
f 13/30/14 15/35/14 24/25/14 23/31/14
f 3/36/15 5/21/15 19/24/15 18/37/15
f 9/33/16 11/29/16 22/32/16 21/34/16
f 15/35/17 1/38/17 17/26/17 24/25/17
f 1/38/18 3/36/18 18/37/18 17/26/18
f 29/39/19 52/40/19 53/41/19 28/42/19
f 22/32/20 23/31/20 31/43/20 30/44/20
f 20/23/21 21/34/21 29/39/21 28/42/21
f 18/37/22 19/24/22 27/45/22 26/46/22
f 23/31/23 24/25/23 32/28/23 31/43/23
f 21/34/24 22/32/24 30/44/24 29/39/24
f 19/24/25 20/23/25 28/42/25 27/45/25
f 17/26/26 18/37/26 26/46/26 25/27/26
f 27/45/27 54/47/27 55/48/27 26/46/27
f 14/13/28 12/11/28 34/49/28 38/50/28
f 32/28/29 49/51/29 50/52/29 31/43/29
f 30/44/30 51/53/30 52/40/30 29/39/30
f 28/42/31 53/41/31 54/47/31 27/45/31
f 25/27/32 57/54/32 49/51/32 32/28/32
f 31/43/33 50/52/33 51/53/33 30/44/33
f 51/53/34 50/52/34 46/55/34 45/56/34
f 53/41/35 52/40/35 44/57/35 43/58/35
f 55/48/36 54/47/36 42/59/36 41/60/36
f 50/52/37 49/51/37 48/61/37 46/55/37
f 52/40/38 51/53/38 45/56/38 44/57/38
f 54/47/39 53/41/39 43/58/39 42/59/39
f 49/51/40 57/54/40 47/62/40 48/61/40
f 47/62/41 66/63/41 46/55/41 48/61/41
f 10/9/42 8/7/42 40/64/42 39/65/42
f 16/19/43 14/13/43 38/50/43 37/66/43
f 2/2/44 16/19/44 37/66/44 33/67/44
f 8/7/45 6/5/45 35/68/45 40/64/45
f 38/50/46 34/49/46 68/69/46 73/70/46
f 6/5/47 4/3/47 36/71/47 35/68/47
f 67/72/48 74/73/48 56/74/48 59/75/48
f 71/76/49 73/70/49 63/77/49 64/78/49
f 68/69/50 70/15/50 61/18/50 62/79/50
f 12/11/51 10/9/51 39/65/51 34/49/51
f 57/54/52 55/48/52 41/60/52 47/62/52
f 4/3/53 2/2/53 33/67/53 36/71/53
f 56/74/54 58/80/54 65/81/54
f 69/82/55 71/76/55 64/78/55 58/80/55
f 74/73/56 69/82/56 58/80/56 56/74/56
f 72/16/57 67/72/57 59/75/57 60/17/57
f 73/70/58 68/69/58 62/79/58 63/77/58
f 60/17/59 59/75/59 65/81/59
f 64/78/60 63/77/60 65/81/60
f 62/79/61 61/18/61 65/81/61
f 59/75/62 56/74/62 65/81/62
f 58/80/63 64/78/63 65/81/63
f 61/18/64 60/17/64 65/81/64
f 63/77/65 62/79/65 65/81/65
f 44/57/41 66/63/41 42/59/41 43/58/41
f 46/55/41 66/63/41 44/57/41 45/56/41
f 42/59/41 66/63/41 47/62/41 41/60/41
f 26/46/66 55/48/66 57/54/66 25/27/66
f 40/64/67 35/68/67 67/72/67 72/16/67
f 36/71/68 33/67/68 69/82/68 74/73/68
f 33/67/69 37/66/69 71/76/69 69/82/69
f 34/49/70 39/65/70 70/15/70 68/69/70
f 37/66/71 38/50/71 73/70/71 71/76/71
f 35/68/72 36/71/72 74/73/72 67/72/72
f 39/65/73 40/64/73 72/16/73 70/15/73
