{
  "accessors": [
    {
      "bufferView": 3,
      "componentType": 5126,
      "count": 1166,
      "max": [
        1.4579567909240723,
        5.364012241363525,
        1.5228500366210938
      ],
      "min": [
        -1.4835833311080933,
        -0.048134803771972656,
        -1.574028730392456
      ],
      "type": "VEC3"
    },
    {
      "bufferView": 3,
      "byteOffset": 13992,
      "componentType": 5126,
      "count": 1166,
      "max": [
        1.0,
        1.0,
        1.0
      ],
      "min": [
        -1.0,
        -0.9999862909317017,
        -1.0
      ],
      "type": "VEC3"
    },
    {
      "bufferView": 2,
      "componentType": 5126,
      "count": 1166,
      "max": [
        0.6352834701538086,
        0.4970737397670746
      ],
      "min": [
        0.2181393951177597,
        0.05752057954668999
      ],
      "type": "VEC2"
    },
    {
      "bufferView": 1,
      "componentType": 5125,
      "count": 6912,
      "type": "SCALAR"
    },
    {
      "bufferView": 3,
      "byteOffset": 27984,
      "componentType": 5126,
      "count": 1446,
      "max": [
        107.52620697021484,
        283.7957458496094,
        58.394168853759766
      ],
      "min": [
        -109.03485870361328,
        93.8305892944336,
        -66.96343231201172
      ],
      "type": "VEC3"
    },
    {
      "bufferView": 3,
      "byteOffset": 45336,
      "componentType": 5126,
      "count": 1446,
      "max": [
        0.997743546962738,
        0.9982462525367737,
        0.9999999403953552
      ],
      "min": [
        -0.997743546962738,
        -0.9982462525367737,
        -0.9999999403953552
      ],
      "type": "VEC3"
    },
    {
      "bufferView": 2,
      "byteOffset": 9328,
      "componentType": 5126,
      "count": 1446,
      "max": [
        0.9864402413368225,
        0.7695571780204773
      ],
      "min": [
        0.5213167667388916,
        0.36720138788223267
      ],
      "type": "VEC2"
    },
    {
      "bufferView": 1,
      "byteOffset": 27648,
      "componentType": 5125,
      "count": 8640,
      "type": "SCALAR"
    },
    {
      "bufferView": 3,
      "byteOffset": 62688,
      "componentType": 5126,
      "count": 11408,
      "max": [
        105.9985580444336,
        -130.8214874267578,
        58.10805892944336
      ],
      "min": [
        -103.22357940673828,
        -409.5152587890625,
        -69.21414184570313
      ],
      "type": "VEC3"
    },
    {
      "bufferView": 3,
      "byteOffset": 199584,
      "componentType": 5126,
      "count": 11408,
      "max": [
        0.9995205998420715,
        0.9999217391014099,
        0.9970375895500183
      ],
      "min": [
        -0.9997621178627014,
        -0.9910229444503784,
        -0.9982051253318787
      ],
      "type": "VEC3"
    },
    {
      "bufferView": 2,
      "byteOffset": 20896,
      "componentType": 5126,
      "count": 11408,
      "max": [
        0.6036003232002258,
        0.635783851146698
      ],
      "min": [
        0.5498882532119751,
        0.58037269115448
      ],
      "type": "VEC2"
    },
    {
      "bufferView": 1,
      "byteOffset": 62208,
      "componentType": 5125,
      "count": 21579,
      "type": "SCALAR"
    },
    {
      "bufferView": 3,
      "byteOffset": 336480,
      "componentType": 5126,
      "count": 10288,
      "max": [
        102.55784606933594,
        -130.8214874267578,
        73.98490142822266
      ],
      "min": [
        -106.40576171875,
        -409.5152587890625,
        -53.33728790283203
      ],
      "type": "VEC3"
    },
    {
      "bufferView": 3,
      "byteOffset": 459936,
      "componentType": 5126,
      "count": 10288,
      "max": [
        0.9997621178627014,
        0.9999217391014099,
        0.9982051253318787
      ],
      "min": [
        -0.9995205998420715,
        -0.9910230040550232,
        -0.9970375895500183
      ],
      "type": "VEC3"
    },
    {
      "bufferView": 2,
      "byteOffset": 112160,
      "componentType": 5126,
      "count": 10288,
      "max": [
        0.6036003232002258,
        0.635783851146698
      ],
      "min": [
        0.5498882532119751,
        0.58037269115448
      ],
      "type": "VEC2"
    },
    {
      "bufferView": 1,
      "byteOffset": 148524,
      "componentType": 5125,
      "count": 19368,
      "type": "SCALAR"
    },
    {
      "bufferView": 5,
      "componentType": 5126,
      "count": 4,
      "max": [
        22.21514320373535,
        0.0,
        0.22214780747890472,
        0.0,
        0.0,
        22.21514320373535,
        0.0012665789108723402,
        0.0,
        0.0,
        2.9895556252768074e-08,
        22.21514320373535,
        0.0,
        9.291519220688826e-10,
        0.0,
        0.0,
        1.0
      ],
      "min": [
        -5.279729521134868e-06,
        -0.0012665787944570184,
        0.0,
        0.0,
        -2.0641242881591637e-10,
        0.22214779257774353,
        0.0,
        0.0,
        -0.22215139865875244,
        0.0,
        -5.279645392874954e-06,
        0.0,
        0.0,
        -0.9999836087226868,
        -0.005701421294361353,
        1.0
      ],
      "type": "MAT4"
    },
    {
      "bufferView": 0,
      "componentType": 5123,
      "count": 1166,
      "type": "VEC4"
    },
    {
      "bufferView": 4,
      "componentType": 5126,
      "count": 1166,
      "max": [
        1.0,
        0.4232548177242279,
        0.0,
        0.0
      ],
      "min": [
        0.5767451524734497,
        0.0,
        0.0,
        0.0
      ],
      "type": "VEC4"
    },
    {
      "bufferView": 0,
      "byteOffset": 9328,
      "componentType": 5123,
      "count": 1446,
      "type": "VEC4"
    },
    {
      "bufferView": 4,
      "byteOffset": 18656,
      "componentType": 5126,
      "count": 1446,
      "max": [
        0.9823534488677979,
        0.4993657171726227,
        0.0,
        0.0
      ],
      "min": [
        0.5006342530250549,
        0.017646560445427895,
        0.0,
        0.0
      ],
      "type": "VEC4"
    },
    {
      "bufferView": 0,
      "byteOffset": 20896,
      "componentType": 5123,
      "count": 11408,
      "type": "VEC4"
    },
    {
      "bufferView": 4,
      "byteOffset": 41792,
      "componentType": 5126,
      "count": 11408,
      "max": [
        1.0,
        0.49999868869781494,
        0.0,
        0.0
      ],
      "min": [
        0.5000013113021851,
        0.0,
        0.0,
        0.0
      ],
      "type": "VEC4"
    },
    {
      "bufferView": 0,
      "byteOffset": 112160,
      "componentType": 5123,
      "count": 10288,
      "type": "VEC4"
    },
    {
      "bufferView": 4,
      "byteOffset": 224320,
      "componentType": 5126,
      "count": 10288,
      "max": [
        1.0,
        0.49999868869781494,
        0.0,
        0.0
      ],
      "min": [
        0.5000013113021851,
        0.0,
        0.0,
        0.0
      ],
      "type": "VEC4"
    },
    {
      "bufferView": 6,
      "componentType": 5126,
      "count": 4,
      "max": [
        0.4583333432674408
      ],
      "min": [
        0.0
      ],
      "type": "SCALAR"
    },
    {
      "bufferView": 7,
      "componentType": 5126,
      "count": 4,
      "max": [
        1.0000001192092896,
        1.0000001192092896,
        1.0
      ],
      "min": [
        1.0000001192092896,
        1.0,
        1.0
      ],
      "type": "VEC3"
    },
    {
      "bufferView": 6,
      "byteOffset": 16,
      "componentType": 5126,
      "count": 22,
      "max": [
        0.4583333432674408
      ],
      "min": [
        0.0
      ],
      "type": "SCALAR"
    },
    {
      "bufferView": 8,
      "componentType": 5126,
      "count": 22,
      "max": [
        0.04197239130735397,
        0.7113661170005798,
        0.03053460270166397,
        0.7224756479263306
      ],
      "min": [
        -0.028390327468514442,
        0.6891405582427979,
        -0.03677702695131302,
        0.7015838027000427
      ],
      "type": "VEC4"
    }
  ],
  "animations": [
    {
      "channels": [
        {
          "sampler": 0,
          "target": {
            "node": 17,
            "path": "scale"
          }
        },
        {
          "sampler": 1,
          "target": {
            "node": 17,
            "path": "rotation"
          }
        }
      ],
      "name": "Shake",
      "samplers": [
        {
          "input": 25,
          "interpolation": "LINEAR",
          "output": 26
        },
        {
          "input": 27,
          "interpolation": "LINEAR",
          "output": 28
        }
      ]
    }
  ],
  "asset": {
    "extras": {
      "author": "Refref1990 (https://sketchfab.com/refref1990)",
      "license": "CC-BY-4.0 (http://creativecommons.org/licenses/by/4.0/)",
      "source": "https://sketchfab.com/3d-models/animal-crossing-tree-13aab201d9144167acf2f117d3c8ff41",
      "title": "Animal Crossing Tree"
    },
    "generator": "Sketchfab-14.86.0",
    "version": "2.0"
  },
  "bufferViews": [
    {
      "buffer": 0,
      "byteLength": 194464,
      "byteStride": 8,
      "name": "shortBufferViews",
      "target": 34962
    },
    {
      "buffer": 0,
      "byteLength": 225996,
      "byteOffset": 194464,
      "name": "floatBufferViews",
      "target": 34963
    },
    {
      "buffer": 0,
      "byteLength": 194464,
      "byteOffset": 420460,
      "byteStride": 8,
      "name": "floatBufferViews",
      "target": 34962
    },
    {
      "buffer": 0,
      "byteLength": 583392,
      "byteOffset": 614924,
      "byteStride": 12,
      "name": "floatBufferViews",
      "target": 34962
    },
    {
      "buffer": 0,
      "byteLength": 388928,
      "byteOffset": 1198316,
      "byteStride": 16,
      "name": "floatBufferViews",
      "target": 34962
    },
    {
      "buffer": 0,
      "byteLength": 256,
      "byteOffset": 1587244,
      "name": "floatBufferViews"
    },
    {
      "buffer": 0,
      "byteLength": 104,
      "byteOffset": 1587500,
      "name": "floatBufferViews"
    },
    {
      "buffer": 0,
      "byteLength": 48,
      "byteOffset": 1587604,
      "byteStride": 12,
      "name": "floatBufferViews"
    },
    {
      "buffer": 0,
      "byteLength": 352,
      "byteOffset": 1587652,
      "byteStride": 16,
      "name": "floatBufferViews"
    }
  ],
  "buffers": [
    {
      "byteLength": 1588004,
      "uri": "scene.bin"
    }
  ],
  "images": [
    {
      "uri": "textures/Material.001_baseColor.png"
    }
  ],
  "materials": [
    {
      "doubleSided": true,
      "name": "Material.001",
      "pbrMetallicRoughness": {
        "baseColorTexture": {
          "index": 0
        },
        "metallicFactor": 0.0,
        "roughnessFactor": 0.8211145618000169
      }
    }
  ],
  "meshes": [
    {
      "name": "Cube_Material.001_0",
      "primitives": [
        {
          "attributes": {
            "JOINTS_0": 17,
            "NORMAL": 1,
            "POSITION": 0,
            "TEXCOORD_0": 2,
            "WEIGHTS_0": 18
          },
          "indices": 3,
          "material": 0,
          "mode": 4
        }
      ]
    },
    {
      "name": "Sphere.002_Material.001_0",
      "primitives": [
        {
          "attributes": {
            "JOINTS_0": 19,
            "NORMAL": 5,
            "POSITION": 4,
            "TEXCOORD_0": 6,
            "WEIGHTS_0": 20
          },
          "indices": 7,
          "material": 0,
          "mode": 4
        }
      ]
    },
    {
      "name": "Plane.025_Material.001_0",
      "primitives": [
        {
          "attributes": {
            "JOINTS_0": 21,
            "NORMAL": 9,
            "POSITION": 8,
            "TEXCOORD_0": 10,
            "WEIGHTS_0": 22
          },
          "indices": 11,
          "material": 0,
          "mode": 4
        }
      ]
    },
    {
      "name": "Plane.001_Material.001_0",
      "primitives": [
        {
          "attributes": {
            "JOINTS_0": 23,
            "NORMAL": 13,
            "POSITION": 12,
            "TEXCOORD_0": 14,
            "WEIGHTS_0": 24
          },
          "indices": 15,
          "material": 0,
          "mode": 4
        }
      ]
    }
  ],
  "nodes": [
    {
      "children": [
        1
      ],
      "matrix": [
        1.0,
        0.0,
        0.0,
        0.0,
        0.0,
        2.220446049250313e-16,
        -1.0,
        0.0,
        0.0,
        1.0,
        2.220446049250313e-16,
        0.0,
        0.0,
        0.0,
        0.0,
        1.0
      ],
      "name": "Sketchfab_model"
    },
    {
      "children": [
        2
      ],
      "matrix": [
        0.009999999776482582,
        0.0,
        0.0,
        0.0,
        0.0,
        0.0,
        0.009999999776482582,
        0.0,
        0.0,
        -0.009999999776482582,
        0.0,
        0.0,
        0.0,
        0.0,
        0.0,
        1.0
      ],
      "name": "a76b21acd8a14f12a6c6bbe3d3a97099.fbx"
    },
    {
      "children": [
        3
      ],
      "name": "Object_2"
    },
    {
      "children": [
        4,
        5,
        6,
        7,
        21
      ],
      "name": "RootNode"
    },
    {
      "name": "Cube",
      "rotation": [
        -0.7071068286895752,
        0.0,
        0.0,
        0.7071067094802856
      ],
      "scale": [
        22.21514320373535,
        22.21514320373535,
        22.21514320373535
      ],
      "translation": [
        -0.08371677249670029,
        24.609107971191406,
        -2.834414005279541
      ]
    },
    {
      "name": "Sphere.002",
      "rotation": [
        0.5260665416717529,
        -0.4724973738193512,
        -0.4724975526332855,
        0.5260668396949768
      ],
      "scale": [
        -41.46364212036133,
        -41.463645935058594,
        -41.46364212036133
      ],
      "translation": [
        -30.83043670654297,
        103.37030029296875,
        -2.8344030380249023
      ]
    },
    {
      "name": "Plane.025",
      "rotation": [
        -0.2317727506160736,
        0.2432183176279068,
        -0.19814945757389069,
        0.9207949042320251
      ],
      "scale": [
        9.320320129394531,
        6.781023025512695,
        9.320318222045898
      ],
      "translation": [
        0.15953931212425232,
        120.10771942138672,
        19.099157333374023
      ]
    },
    {
      "children": [
        8
      ],
      "name": "Armature",
      "rotation": [
        -0.7071068286895752,
        0.0,
        0.0,
        0.7071067094802856
      ],
      "scale": [
        100.0,
        100.0,
        100.0
      ]
    },
    {
      "children": [
        9,
        11,
        13,
        15,
        20,
        10,
        12,
        14,
        19
      ],
      "name": "Object_8"
    },
    {
      "children": [
        16
      ],
      "name": "_rootJoint"
    },
    {
      "matrix": [
        22.215142846107483,
        0.0,
        0.0,
        0.0,
        0.0,
        1.3602851789543376e-15,
        -22.215142846107483,
        0.0,
        0.0,
        22.215142846107483,
        1.3602851789543376e-15,
        0.0,
        -0.08371677249670029,
        24.60910677909851,
        -2.8344139456748962,
        1.0
      ],
      "name": "Object_10"
    },
    {
      "mesh": 0,
      "name": "Object_11",
      "skin": 0
    },
    {
      "matrix": [
        -4.435973614454268,
        41.22566878795623,
        -4.59801228203105e-06,
        0.0,
        -1.959962039649301e-05,
        -6.733517296505888e-06,
        -41.46364629268646,
        0.0,
        41.22566878795647,
        4.435973614452039,
        -2.0207512816909256e-05,
        0.0,
        -30.830436944961548,
        103.37029695510864,
        -2.8344029560685158,
        1.0
      ],
      "name": "Object_12"
    },
    {
      "mesh": 1,
      "name": "Object_13",
      "skin": 0
    },
    {
      "matrix": [
        7.485739141702651,
        -4.451875016093253,
        -3.318565338850022,
        0.0,
        1.709951123150875,
        5.519999629050549,
        -3.5479489424563537,
        0.0,
        5.030730686591067,
        3.0798351768337153,
        7.2162798948677,
        0.0,
        0.1595393056049943,
        120.10772228240967,
        19.09915655851364,
        1.0
      ],
      "name": "Object_14"
    },
    {
      "mesh": 2,
      "name": "Object_15",
      "skin": 0
    },
    {
      "children": [
        17
      ],
      "name": "Bone_00",
      "rotation": [
        0.7071068286895752,
        0.0,
        0.0,
        0.7071067094802856
      ]
    },
    {
      "children": [
        18
      ],
      "name": "Bone.001_01",
      "rotation": [
        -0.001908261445350945,
        0.7038610577583313,
        0.005204991437494755,
        0.710316002368927
      ],
      "scale": [
        1.0000001192092896,
        1.0,
        1.0
      ],
      "translation": [
        0.0,
        1.0,
        0.0
      ]
    },
    {
      "name": "Bone.001_end_02",
      "rotation": [
        6.369687763352339e-19,
        -2.7624117244323756e-37,
        -4.336808689942018e-19,
        1.0
      ],
      "translation": [
        8.673617379884035e-19,
        0.8352619409561157,
        1.734723475976807e-18
      ]
    },
    {
      "matrix": [
        -7.485739886760711,
        -4.451873525977135,
        3.3185645937919612,
        0.0,
        -1.709950931116866,
        5.520000336491184,
        3.5479482587051763,
        0.0,
        -5.030729186679258,
        3.0798350869318343,
        -7.216280764619686,
        0.0,
        0.15953805996105075,
        120.10772228240967,
        -22.83734232187271,
        1.0
      ],
      "name": "Object_19"
    },
    {
      "mesh": 3,
      "name": "Object_20",
      "skin": 0
    },
    {
      "name": "Plane.001",
      "rotation": [
        -0.19814935326576233,
        0.9207948446273804,
        0.23177269101142883,
        -0.24321818351745605
      ],
      "scale": [
        9.320319175720215,
        6.781023025512695,
        9.320318222045898
      ],
      "translation": [
        0.15953806042671204,
        120.10771942138672,
        -22.837343215942383
      ]
    }
  ],
  "samplers": [
    {
      "magFilter": 9729,
      "minFilter": 9987,
      "wrapS": 10497,
      "wrapT": 10497
    }
  ],
  "scene": 0,
  "scenes": [
    {
      "name": "Sketchfab_Scene",
      "nodes": [
        0
      ]
    }
  ],
  "skins": [
    {
      "inverseBindMatrices": 16,
      "joints": [
        9,
        16,
        17,
        18
      ],
      "skeleton": 9
    }
  ],
  "textures": [
    {
      "sampler": 0,
      "source": 0
    }
  ]
}
